<svg xmlns="http://www.w3.org/2000/svg" viewBox="0 0 479 158"><path fill="currentColor" style="fill:var(--logo-main,#F3B21B)" d="M102.5 85.5L102.5 85.5Q98.7 85.5 96 84.7Q93.2 83.9 91.5 83Q89.7 82.2 88.6 82.2L88.6 82.2Q87.6 82.2 86.8 82.7Q85.9 83.3 85.2 84Q84.4 84.7 83.6 85.2Q82.8 85.8 81.8 85.8L81.8 85.8Q80.5 85.8 79.7 85Q78.8 84.2 78.5 82.5L78.5 82.5L75.4 65.7Q75.2 64.4 75.8 63.5Q76.3 62.6 77.6 62.2L77.6 62.2Q79.1 61.7 80.2 62.2Q81.2 62.7 82 64.3L82 64.3Q85 70.1 88.1 73.4Q91.2 76.7 94.5 78Q97.7 79.4 101.1 79.4L101.1 79.4Q105.8 79.4 108.5 77.1Q111.2 74.8 111.2 70.8L111.2 70.8Q111.2 68.1 110 66Q108.7 64 105.1 62Q101.4 60.1 94.2 57.9L94.2 57.9Q86.5 55.5 81.9 52.2Q77.2 49 75.1 44.5Q73 40.1 73 34L73 34Q73 27.8 76.1 22.9Q79.1 18.1 84.6 15.4Q90.1 12.7 97.6 12.7L97.6 12.7Q101.9 12.7 104.8 13.5Q107.7 14.3 109.7 15.1Q111.6 16 113 16L113 16Q114.2 16 115 15.1Q115.8 14.3 116.7 13.4Q117.6 12.5 119.1 12.5L119.1 12.5Q120.5 12.5 121.4 13.3Q122.3 14.2 122.9 16.5L122.9 16.5L127.6 33Q128 34.6 127.4 35.8Q126.9 37 125.5 37.4L125.5 37.4Q124.1 37.9 123 37.3Q121.9 36.8 121.2 35.4L121.2 35.4Q118 29.2 114.5 25.5Q110.9 21.9 107.2 20.3Q103.4 18.8 99.8 18.8L99.8 18.8Q95.2 18.8 92.6 21.4Q90 23.9 90 28.1L90 28.1Q90 30.6 91.3 32.8Q92.5 34.9 96.1 37Q99.6 39.1 106.6 41.6L106.6 41.6Q114.3 44.3 118.9 47.6Q123.5 50.8 125.5 54.9Q127.6 59.1 127.5 64.6L127.5 64.6Q127.5 70.4 124.6 75.1Q121.6 79.9 116 82.7Q110.4 85.5 102.5 85.5M157.7 38.8L157.7 38.8L157.7 74.9Q157.7 76.6 158.1 77.4Q158.5 78.2 159.3 78.5L159.3 78.5L160.8 79Q161.9 79.4 162.3 80Q162.8 80.7 162.8 81.5L162.8 81.5Q162.8 82.7 162 83.3Q161.2 84 159.6 84L159.6 84L138.3 84Q136.6 84 135.9 83.3Q135.1 82.7 135.1 81.5L135.1 81.5Q135.1 80.7 135.6 80Q136 79.4 137 79L137 79L138.6 78.5Q139.4 78.2 139.8 77.4Q140.2 76.6 140.2 74.9L140.2 74.9L140.2 48.6Q140.2 47.2 139.8 46.6Q139.3 45.9 138.5 45.8L138.5 45.8L136.6 45.5Q135.6 45.2 135.2 44.7Q134.8 44.2 134.8 43.3L134.8 43.3Q134.8 42.3 135.4 41.7Q135.9 41.1 137.5 40.5L137.5 40.5L147.8 36.7Q150.1 35.8 151.4 35.4Q152.7 35.1 153.7 35.1L153.7 35.1Q155.7 35.1 156.7 36.1Q157.7 37.2 157.7 38.8M147.9 29.1L147.9 29.1Q143.1 29.1 140.3 26.7Q137.4 24.4 137.4 20.4L137.4 20.4Q137.4 16.5 140.3 14.3Q143.1 12 147.9 12L147.9 12Q152.7 12 155.5 14.3Q158.3 16.5 158.3 20.4L158.3 20.4Q158.3 24.4 155.5 26.7Q152.7 29.1 147.9 29.1M191.1 80L191.1 80Q194.2 80 195.9 78.5Q197.5 77 197.5 74.8L197.5 74.8Q197.5 73.4 196.9 72.3Q196.3 71.2 194.6 70.2Q192.8 69.3 189.3 68.5L189.3 68.5Q180.8 67 176.3 64.5Q171.7 62 170.1 58.6Q168.4 55.3 168.4 51.2L168.4 51.2Q168.4 43.7 173.7 39.3Q178.9 34.9 189.1 34.9L189.1 34.9Q192.7 34.9 194.9 35.5Q197 36.1 198.4 36.7Q199.8 37.3 200.8 37.3L200.8 37.3Q202 37.3 202.6 36.7Q203.3 36.1 204 35.5Q204.6 34.9 205.8 34.9L205.8 34.9Q206.7 34.9 207.4 35.5Q208.1 36.1 208.6 37.7L208.6 37.7L211.5 47.3Q212.2 49.4 212 50.7Q211.7 52.1 210.3 52.6L210.3 52.6Q209 53.1 208 52.6Q207 52.1 206 50.7L206 50.7Q203.8 47.1 201.2 44.8Q198.7 42.4 195.9 41.4Q193.2 40.3 190.2 40.3L190.2 40.3Q186.4 40.3 184.5 41.8Q182.5 43.3 182.5 45.9L182.5 45.9Q182.5 47.4 183.3 48.6Q184.1 49.8 186.4 50.7Q188.7 51.7 193.1 52.7L193.1 52.7Q200 54 204 56.3Q208 58.7 209.8 62Q211.5 65.3 211.5 69.8L211.5 69.8Q211.5 74.5 209.1 78Q206.6 81.5 202.3 83.4Q198 85.3 192.4 85.3L192.4 85.3Q188.9 85.3 186.9 84.7Q184.8 84.1 183.5 83.4Q182.2 82.8 181 82.8L181 82.8Q179.8 82.8 178.9 83.4Q178.1 84.1 177.3 84.7Q176.5 85.3 175.4 85.3L175.4 85.3Q174.5 85.3 173.9 84.7Q173.3 84 173 82.4L173 82.4L171.2 73.3Q170.8 71 171.2 69.9Q171.5 68.8 172.6 68.3L172.6 68.3Q174 67.8 175 68.4Q176 69 177 70.5L177 70.5Q180.3 75.7 183.9 77.8Q187.5 80 191.1 80M221.6 41.9L221.6 41.9L219.6 41.3Q218.4 40.8 217.9 40.2Q217.4 39.6 217.4 38.8L217.4 38.8Q217.4 37.6 218.2 36.9Q219 36.3 220.4 36.3L220.4 36.3L223.3 36.3Q224.3 36.3 225.2 35.8Q226 35.3 227 34.1L227 34.1L233.9 26.2Q235.2 24.7 236.4 24Q237.6 23.3 238.7 23.3L238.7 23.3Q239.9 23.3 240.6 24.1Q241.3 24.9 241.3 26.4L241.3 26.4L241.3 36.3L252.3 36.3Q253.7 36.3 254.5 36.8Q255.2 37.4 255.2 38.4L255.2 38.4Q255.2 40.1 253.7 41.1Q252.1 42.2 248.6 42.2L248.6 42.2L241.3 42.2L241.3 67.8Q241.3 71.4 242.7 73.3Q244 75.2 246.4 75.2L246.4 75.2Q248.2 75.2 249.3 74.3Q250.3 73.5 250.9 72.4Q251.5 71.4 252.2 70.5Q252.8 69.7 253.8 69.6L253.8 69.6Q254.7 69.6 255.2 70.2Q255.7 70.8 255.7 72.2L255.7 72.2Q255.7 75.8 253.6 78.7Q251.4 81.7 247.7 83.4Q243.9 85.2 239.1 85.2L239.1 85.2Q231.8 85.2 227.8 81.7Q223.8 78.1 223.8 70.9L223.8 70.9L223.8 45Q223.8 43.6 223.3 43Q222.7 42.3 221.6 41.9M309 54.1L309 54.1Q309 57.2 307.3 58.8Q305.6 60.5 302.5 60.5L302.5 60.5L276.5 60.5Q277.5 65.8 280.4 68.9L280.4 68.9Q284.7 73.4 292 73.4L292 73.4Q295.9 73.4 299 72.1Q302 70.8 304.2 68L304.2 68Q305.3 66.9 306 66.5Q306.6 66.1 307.2 66.1L307.2 66.1Q308.1 66.1 308.5 67Q308.9 67.8 308.9 69L308.9 69Q308.8 73.4 305.9 77.1Q303 80.8 297.9 83.1Q292.8 85.3 286.2 85.3L286.2 85.3Q278.8 85.3 273 82.3Q267.1 79.3 263.8 73.9Q260.4 68.6 260.4 61.3L260.4 61.3Q260.4 53.5 263.5 47.5Q266.7 41.6 272.6 38.3Q278.5 34.9 286.8 34.9L286.8 34.9Q294 34.9 299 37.4Q303.9 39.9 306.5 44.2Q309 48.5 309 54.1M276.1 56L288.9 56Q291.5 56 291.5 53.6L291.5 53.6Q291.5 47.1 289.6 44Q287.7 40.9 284.5 40.9L284.5 40.9Q282 40.9 280.2 42.5Q278.3 44.1 277.2 47.2Q276.1 50.4 276.1 54.9L276.1 54.9Q276.1 55.5 276.1 56L276.1 56M338 38.8L338 38.8L338 43.9Q343.1 39.4 347 37.4L347 37.4Q351.9 34.9 356.1 34.9L356.1 34.9Q362.7 34.9 366.6 39.2L366.6 39.2Q368.7 41.5 369.7 44.6L369.7 44.6Q375.1 39.8 379.1 37.6L379.1 37.6Q383.7 34.9 387.8 34.9L387.8 34.9Q394.1 34.9 397.6 39.2Q401.2 43.5 401.8 50.4L401.8 50.4L404.4 74.8Q404.6 76.6 404.9 77.4Q405.2 78.2 406 78.5L406 78.5L407.4 79Q408.5 79.4 408.9 80Q409.4 80.7 409.4 81.5L409.4 81.5Q409.4 82.7 408.6 83.3Q407.9 84 406.2 84L406.2 84L385.2 84Q381.9 84 381.9 81.4L381.9 81.4Q381.9 79.8 383.5 79L383.5 79L385 78.5Q385.8 78.1 386.3 77.3Q386.8 76.6 386.6 74.8L386.6 74.8L384.3 53Q383.9 49.2 382.5 47.3Q381 45.4 378 45.4L378 45.4Q376.3 45.4 374.4 46.3Q372.6 47.2 370.7 48.9L370.7 48.9L370.4 49.1Q370.5 49.8 370.5 50.4L370.5 50.4L370.5 74.8Q370.5 76.6 370.9 77.4Q371.2 78.1 372.1 78.5L372.1 78.5L373.4 79Q375 79.8 375 81.4L375 81.4Q375 84 371.8 84L371.8 84L351.5 84Q348.3 84 348.3 81.4L348.3 81.4Q348.3 79.8 349.8 79L349.8 79L351.3 78.5Q352.2 78.1 352.5 77.3Q352.9 76.6 352.9 74.8L352.9 74.8L352.9 53Q352.9 49.2 351.2 47.3Q349.5 45.4 346.3 45.4L346.3 45.4Q344.4 45.4 342.4 46.3Q340.3 47.1 338.3 48.9L338.3 48.9L338 49.1L338 74.9Q338 76.6 338.4 77.4Q338.8 78.1 339.6 78.5L339.6 78.5L341 79Q342.6 79.8 342.6 81.4L342.6 81.4Q342.6 84 339.3 84L339.3 84L318.6 84Q316.9 84 316.2 83.3Q315.4 82.7 315.4 81.5L315.4 81.5Q315.4 80.7 315.9 80Q316.3 79.4 317.3 79L317.3 79L318.9 78.5Q319.7 78.2 320.1 77.4Q320.4 76.6 320.4 74.9L320.4 74.9L320.4 48.6Q320.4 47.2 320 46.6Q319.6 45.9 318.8 45.8L318.8 45.8L316.9 45.5Q315.9 45.2 315.5 44.7Q315.1 44.2 315.1 43.3L315.1 43.3Q315.1 42.3 315.7 41.7Q316.2 41.1 317.7 40.5L317.7 40.5L328.1 36.7Q330.2 35.8 331.6 35.4Q333 35.1 334.2 35.1L334.2 35.1Q336.1 35.1 337.1 36.1Q338 37.2 338 38.8"/><path style="fill:var(--logo-sub,#000)" d="M28.2 124.4L28.2 124.4Q28.2 127 26.9 128.9Q25.5 130.8 23 131.9Q20.4 132.9 17 132.9L17 132.9Q14.7 132.9 12.9 132.4L12.9 132.4Q12.7 132.4 12.6 132.4L12.6 132.4L12.6 138.2Q12.6 138.6 12.9 139Q13.1 139.3 13.6 139.4L13.6 139.4L15.1 139.6Q15.7 139.7 15.9 140Q16.2 140.3 16.2 140.9L16.2 140.9Q16.2 141.4 15.8 141.7Q15.5 142 14.7 142L14.7 142L3.5 142Q2.7 142 2.4 141.7Q2 141.4 2 140.9L2 140.9Q2 140 2.9 139.6L2.9 139.6L3.9 139.4Q4.4 139.2 4.6 138.9Q4.9 138.6 4.9 138.2L4.9 138.2L4.9 117.8Q4.9 117.4 4.6 117.1Q4.4 116.8 3.9 116.6L3.9 116.6L2.9 116.4Q2 116 2 115.1L2 115.1Q2 114.6 2.4 114.3Q2.7 114 3.4 114L3.4 114L13.9 114Q18.4 114 21.6 115.3Q24.9 116.7 26.5 119Q28.2 121.3 28.2 124.4M12.6 116.4L12.6 130.2Q12.8 130.3 13 130.3L13 130.3Q13.9 130.5 14.8 130.5L14.8 130.5Q16.5 130.5 17.8 129.8Q19.2 129 19.9 127.6Q20.7 126.2 20.7 124.2L20.7 124.2Q20.7 121.8 19.8 120Q18.9 118.3 17.3 117.3Q15.8 116.4 13.7 116.4L13.7 116.4L12.6 116.4M39.8 123.9L39.8 123.9L39.8 138.3Q39.8 139 39.9 139.4Q40.1 139.7 40.4 139.8L40.4 139.8L41 140Q41.4 140.1 41.6 140.4Q41.8 140.7 41.8 141L41.8 141Q41.8 141.5 41.5 141.7Q41.2 142 40.5 142L40.5 142L32 142Q31.3 142 31 141.7Q30.7 141.5 30.7 141L30.7 141Q30.7 140.7 30.9 140.4Q31.1 140.2 31.5 140L31.5 140L32.1 139.8Q32.4 139.7 32.6 139.4Q32.7 139 32.7 138.3L32.7 138.3L32.7 127.8Q32.7 127.3 32.6 127Q32.4 126.8 32.1 126.7L32.1 126.7L31.3 126.6Q30.9 126.5 30.7 126.3Q30.6 126.1 30.6 125.7L30.6 125.7Q30.6 125.3 30.8 125.1Q31 124.8 31.7 124.6L31.7 124.6L35.8 123.1Q36.7 122.7 37.2 122.6Q37.8 122.4 38.2 122.4L38.2 122.4Q39 122.4 39.4 122.9Q39.8 123.3 39.8 123.9M35.8 120L35.8 120Q33.9 120 32.8 119.1Q31.6 118.2 31.6 116.6L31.6 116.6Q31.6 115 32.8 114.1Q33.9 113.2 35.8 113.2L35.8 113.2Q37.7 113.2 38.9 114.1Q40 115 40 116.6L40 116.6Q40 118.2 38.9 119.1Q37.7 120 35.8 120M43.9 133L43.9 133Q43.9 129.8 45.2 127.4Q46.5 125 48.7 123.7Q51 122.4 53.8 122.4L53.8 122.4Q56.2 122.4 58 123.4L58 123.4Q58.1 123.5 58.1 123.5L58.1 123.5L58.1 117.4Q58.1 116.9 58 116.6Q57.8 116.4 57.5 116.3L57.5 116.3L56.7 116.2Q56.3 116.1 56.2 115.9Q56 115.7 56 115.3L56 115.3Q56 114.9 56.2 114.7Q56.4 114.4 57.1 114.2L57.1 114.2L61.2 112.7Q62.1 112.3 62.6 112.2Q63.1 112 63.6 112L63.6 112Q64.4 112 64.8 112.5Q65.2 112.9 65.2 113.6L65.2 113.6L65.2 138.3Q65.2 139 65.3 139.4Q65.5 139.7 65.8 139.8L65.8 139.8L66.4 140Q66.8 140.1 67 140.4Q67.2 140.7 67.2 141L67.2 141Q67.2 141.5 66.9 141.7Q66.6 142 65.9 142L65.9 142L61.2 142Q60.1 142 59.2 141.2L59.2 141.2Q58.6 140.6 58.4 139.7L58.4 139.7Q57.7 140.5 56.9 141L56.9 141Q54.8 142.5 52.1 142.5L52.1 142.5Q49.8 142.5 47.9 141.3Q46 140.1 44.9 138Q43.9 135.8 43.9 133M58.1 137.6L58.1 126.4Q57.7 126 57.3 125.8L57.3 125.8Q56.3 125.1 55.1 125.1L55.1 125.1Q54 125.1 53.1 125.8Q52.2 126.6 51.7 128.2Q51.2 129.8 51.2 132.3L51.2 132.3Q51.2 134.7 51.7 136.2Q52.2 137.6 53.1 138.4Q53.9 139.1 55.1 139.1L55.1 139.1Q56.3 139.1 57.4 138.2L57.4 138.2Q57.8 138 58.1 137.6L58.1 137.6M88.9 130L88.9 130Q88.9 131.3 88.2 131.9Q87.6 132.6 86.3 132.6L86.3 132.6L75.9 132.6Q76.3 134.7 77.5 135.9L77.5 135.9Q79.2 137.8 82.1 137.8L82.1 137.8Q83.7 137.8 84.9 137.2Q86.1 136.7 87 135.6L87 135.6Q87.4 135.2 87.7 135Q87.9 134.8 88.2 134.8L88.2 134.8Q88.5 134.8 88.7 135.2Q88.9 135.5 88.9 136L88.9 136Q88.8 137.7 87.7 139.2Q86.5 140.7 84.5 141.6Q82.4 142.5 79.8 142.5L79.8 142.5Q76.8 142.5 74.5 141.3Q72.2 140.1 70.8 138Q69.5 135.8 69.5 132.9L69.5 132.9Q69.5 129.8 70.7 127.4Q72 125 74.4 123.7Q76.7 122.4 80 122.4L80 122.4Q82.9 122.4 84.9 123.4Q86.9 124.4 87.9 126.1Q88.9 127.8 88.9 130M75.7 130.8L80.9 130.8Q81.9 130.8 81.9 129.8L81.9 129.8Q81.9 127.2 81.1 126Q80.4 124.8 79.1 124.8L79.1 124.8Q78.1 124.8 77.4 125.4Q76.6 126 76.2 127.3Q75.7 128.5 75.7 130.4L75.7 130.4Q75.7 130.6 75.7 130.8L75.7 130.8M124.9 142.9L124.9 142.9Q128.6 142.9 131.3 141.5Q133.9 140.1 135.3 137.4Q136.7 134.8 136.7 131L136.7 131Q136.7 126.8 135.2 123.1Q133.6 119.3 130.6 116.4L130.6 116.4Q127.8 113.7 124 112.2Q120.2 110.7 115.9 110.7L115.9 110.7Q111 110.7 107.6 112.1Q104.2 113.5 102.5 116Q100.7 118.6 100.7 122L100.7 122Q100.7 124.1 101.7 125.4Q102.6 126.7 104.2 126.7L104.2 126.7Q105.6 126.7 106.5 125.8Q107.4 125 107.4 123.6L107.4 123.6Q107.4 122.8 107.2 122.2Q107 121.5 106.8 121Q106.5 120.4 106.3 119.8Q106.1 119.2 106.1 118.4L106.1 118.4Q106.1 116.8 107.1 115.5Q108.1 114.1 110.2 113.4Q112.3 112.6 115.7 112.6L115.7 112.6Q119.7 112.6 123.2 114Q126.6 115.4 129.1 117.9L129.1 117.9Q131.9 120.6 133.2 124.1Q134.5 127.5 134.5 131L134.5 131Q134.5 134 133.7 135.9Q132.8 137.9 131.3 138.8Q129.8 139.8 128 139.8L128 139.8Q126.7 139.8 125.5 139.2L125.5 139.2Q124.7 138.7 123.9 138L123.9 138Q127.2 136.5 128.8 134.6L128.8 134.6Q130.6 132.3 130.6 129.8L130.6 129.8Q130.6 128.1 129.9 127.1Q129.2 126.2 127.9 126.2L127.9 126.2Q126.6 126.2 125.8 127.1Q125 128 125 129.3L125 129.3Q125 129.9 125.2 130.4Q125.3 130.8 125.5 131.4Q125.7 131.9 125.7 132.7L125.7 132.7Q125.7 133.4 125.3 134.2Q124.9 135 124.2 135.8L124.2 135.8Q123.7 136.3 122.9 136.9L122.9 136.9Q121.7 135.5 120.2 133.2L120.2 133.2Q118.7 131.1 117.8 129.3L117.8 129.3Q117.7 129.1 117.6 128.9L117.6 128.9Q119.6 128.7 121.2 128.1L121.2 128.1Q123.2 127.3 124.3 125.8Q125.4 124.4 125.4 122.4L125.4 122.4Q125.4 120.7 124.5 119.4Q123.7 118.1 122.1 117.3Q120.6 116.6 118.5 116.6L118.5 116.6Q115.9 116.6 114 117.7Q112.1 118.8 111.1 120.8Q110.1 122.7 110.1 125.1L110.1 125.1Q110.1 126.7 110.4 128.3L110.4 128.3Q107.6 128.5 105.5 129.3L105.5 129.3Q103 130.3 101.8 132Q100.5 133.7 100.5 135.9L100.5 135.9Q100.5 139.1 102.6 140.8Q104.7 142.6 108.6 142.6L108.6 142.6Q110.6 142.6 112.1 142.2Q113.7 141.8 114.8 141.2L114.8 141.2Q115.8 140.6 116.6 139.8L116.6 139.8Q116.9 140.1 117.3 140.4L117.3 140.4Q118.8 141.7 120.7 142.3Q122.6 142.9 124.9 142.9M110.8 129.7L110.8 129.7Q111.3 131.4 112.1 133.1L112.1 133.1Q113 135.1 114.5 137.2L114.5 137.2Q114.9 137.9 115.4 138.5L115.4 138.5Q114.8 139 114.1 139.3L114.1 139.3Q113.2 139.7 112.1 139.7L112.1 139.7Q110.3 139.7 109.1 138.3Q108 136.9 108 134.7L108 134.7Q108 133.3 108.4 132.2Q108.8 131.1 109.6 130.4L109.6 130.4Q110.1 129.9 110.8 129.7M117.1 127.7L117.1 127.7Q116.7 126.7 116.5 125.8L116.5 125.8Q116 124.1 116 122.4L116 122.4Q116 120.5 116.6 119.4Q117.2 118.3 118.2 118.3L118.2 118.3Q118.9 118.3 119.3 119.3Q119.8 120.3 119.8 121.9L119.8 121.9Q119.8 123.7 119.3 125Q118.8 126.3 118 127.1L118 127.1Q117.6 127.5 117.1 127.7M161.2 116.4L161.2 116.4L160.3 116.6Q159.8 116.8 159.5 117.1Q159.3 117.4 159.3 117.8L159.3 117.8L159.3 138.1Q159.3 138.9 159.7 139.3Q160.1 139.6 160.9 139.6L160.9 139.6L163.3 139.6Q164.4 139.6 165.2 139.3Q166 139 166.7 138.2Q167.4 137.4 168.1 135.9L168.1 135.9L169.4 133.1Q169.7 132.5 170.1 132.3Q170.5 132.1 171.1 132.2L171.1 132.2Q171.6 132.4 171.9 132.8Q172.1 133.2 171.9 133.8L171.9 133.8L170 140.9Q169.8 141.9 169.4 142.3Q169 142.7 168.2 142.7L168.2 142.7Q167.7 142.7 167.3 142.5Q166.8 142.4 166.2 142.2Q165.7 142 164.8 142L164.8 142L150.1 142Q149.3 142 149 141.7Q148.6 141.4 148.6 140.9L148.6 140.9Q148.6 140 149.6 139.6L149.6 139.6L150.5 139.4Q151 139.2 151.3 138.9Q151.5 138.6 151.5 138.2L151.5 138.2L151.5 117.8Q151.5 117.4 151.3 117.1Q151 116.8 150.5 116.6L150.5 116.6L149.6 116.4Q148.6 116 148.6 115.1L148.6 115.1Q148.6 114.6 149 114.3Q149.3 114 150.1 114L150.1 114L160.7 114Q161.5 114 161.8 114.3Q162.2 114.6 162.2 115.1L162.2 115.1Q162.2 116 161.2 116.4M174.1 137.8L174.1 137.8Q174.1 135.2 176.4 133.6Q178.8 132 183 132L183 132Q184.2 132 185.2 132.2L185.2 132.2Q185.4 132.3 185.6 132.3L185.6 132.3L185.6 126.4Q185.6 125.4 185.1 124.7Q184.5 124.1 183.5 124.1L183.5 124.1Q182.7 124.1 182.2 124.5Q181.6 124.9 181.6 125.5L181.6 125.5L181.6 127.4Q181.6 128.9 180.7 129.7Q179.7 130.4 177.9 130.4L177.9 130.4Q176.4 130.4 175.6 129.8Q174.8 129.1 174.8 127.9L174.8 127.9Q174.8 126.6 176 125.3Q177.1 124.1 179.3 123.2Q181.5 122.4 184.8 122.4L184.8 122.4Q188.7 122.4 190.7 123.9Q192.6 125.4 192.6 128.1L192.6 128.1L192.6 138Q192.6 138.5 192.8 138.8Q193 139 193.4 139Q193.8 139 194 138.8Q194.2 138.6 194.4 138.4L194.4 138.4Q194.5 138.3 194.7 138.2Q194.8 138.1 195 138.1L195 138.1Q195.3 138.1 195.4 138.3Q195.5 138.5 195.5 138.9L195.5 138.9Q195.5 139.7 195 140.5Q194.4 141.3 193.3 141.9Q192.2 142.5 190.6 142.5L190.6 142.5Q188.6 142.5 187.4 141.6L187.4 141.6Q186.5 141 186.3 140.2L186.3 140.2Q185.3 141.1 184 141.7L184 141.7Q182.2 142.5 180.1 142.5L180.1 142.5Q177.4 142.5 175.7 141.2Q174.1 139.9 174.1 137.8M185.6 138.8L185.6 134Q185.4 133.9 185.2 133.8L185.2 133.8Q184.6 133.7 184 133.7L184 133.7Q182.7 133.7 181.9 134.5Q181.2 135.2 181.2 136.6L181.2 136.6Q181.2 138 181.9 138.7Q182.5 139.4 183.6 139.4L183.6 139.4Q184.4 139.4 185.2 139.1L185.2 139.1Q185.4 138.9 185.6 138.8L185.6 138.8M206.3 113.6L206.3 113.6L206.3 126Q208.3 124.2 209.8 123.4L209.8 123.4Q211.7 122.4 213.3 122.4L213.3 122.4Q215.9 122.4 217.3 124.1Q218.7 125.8 219 128.6L219 128.6L220 138.3Q220.1 139 220.2 139.3Q220.3 139.7 220.6 139.8L220.6 139.8L221.2 140Q221.6 140.2 221.8 140.4Q222 140.7 222 141L222 141Q222 141.5 221.7 141.7Q221.4 142 220.7 142L220.7 142L212.3 142Q211 142 211 140.9L211 140.9Q211 140.3 211.6 140L211.6 140L212.2 139.8Q212.6 139.6 212.8 139.3Q212.9 139 212.9 138.3L212.9 138.3L212 129.6Q211.8 128.1 211.2 127.3Q210.6 126.6 209.4 126.6L209.4 126.6Q208.7 126.6 207.9 126.9Q207.1 127.3 206.4 127.9L206.4 127.9L206.3 128L206.3 138.3Q206.3 139 206.4 139.3Q206.6 139.6 206.9 139.8L206.9 139.8L207.5 140Q208.1 140.3 208.1 140.9L208.1 140.9Q208.1 142 206.8 142L206.8 142L198.5 142Q197.8 142 197.5 141.7Q197.2 141.5 197.2 141L197.2 141Q197.2 140.7 197.4 140.4Q197.6 140.1 198 140L198 140L198.6 139.8Q198.9 139.7 199.1 139.4Q199.2 139 199.2 138.3L199.2 138.3L199.2 117.4Q199.2 116.9 199.1 116.6Q198.9 116.4 198.6 116.3L198.6 116.3L197.8 116.2Q197.4 116.1 197.3 115.9Q197.1 115.7 197.1 115.3L197.1 115.3Q197.1 114.9 197.3 114.7Q197.5 114.4 198.1 114.2L198.1 114.2L202.3 112.7Q203.1 112.3 203.7 112.2Q204.2 112 204.7 112L204.7 112Q205.5 112 205.9 112.5Q206.3 112.9 206.3 113.6M232.7 123.9L232.7 123.9L232.7 126Q234.8 124.2 236.3 123.4L236.3 123.4Q238.3 122.4 240 122.4L240 122.4Q242.6 122.4 244.1 124.1L244.1 124.1Q245 125 245.4 126.2L245.4 126.2Q247.5 124.3 249.1 123.4L249.1 123.4Q251 122.4 252.6 122.4L252.6 122.4Q255.1 122.4 256.6 124.1Q258 125.8 258.2 128.6L258.2 128.6L259.3 138.3Q259.3 139 259.5 139.4Q259.6 139.7 259.9 139.8L259.9 139.8L260.5 140Q260.9 140.2 261.1 140.4Q261.3 140.7 261.3 141L261.3 141Q261.3 141.5 261 141.7Q260.7 142 260 142L260 142L251.6 142Q250.3 142 250.3 140.9L250.3 140.9Q250.3 140.3 250.9 140L250.9 140L251.5 139.8Q251.8 139.6 252 139.3Q252.2 139 252.1 138.3L252.1 138.3L251.2 129.6Q251.1 128.1 250.5 127.3Q249.9 126.6 248.7 126.6L248.7 126.6Q248 126.6 247.3 126.9Q246.5 127.3 245.8 127.9L245.8 127.9L245.7 128Q245.7 128.3 245.7 128.6L245.7 128.6L245.7 138.3Q245.7 139 245.9 139.3Q246 139.6 246.3 139.8L246.3 139.8L246.9 140Q247.5 140.3 247.5 140.9L247.5 140.9Q247.5 142 246.2 142L246.2 142L238.1 142Q236.8 142 236.8 140.9L236.8 140.9Q236.8 140.3 237.4 140L237.4 140L238 139.8Q238.4 139.6 238.5 139.3Q238.7 139 238.7 138.3L238.7 138.3L238.7 129.6Q238.7 128.1 238 127.3Q237.3 126.6 236 126.6L236 126.6Q235.3 126.6 234.5 126.9Q233.6 127.2 232.8 127.9L232.8 127.9L232.7 128L232.7 138.3Q232.7 139 232.9 139.3Q233 139.6 233.4 139.8L233.4 139.8L233.9 140Q234.6 140.3 234.6 140.9L234.6 140.9Q234.6 142 233.2 142L233.2 142L224.9 142Q224.3 142 224 141.7Q223.7 141.5 223.7 141L223.7 141Q223.7 140.7 223.9 140.4Q224 140.1 224.4 140L224.4 140L225.1 139.8Q225.4 139.7 225.5 139.4Q225.7 139 225.7 138.3L225.7 138.3L225.7 127.8Q225.7 127.3 225.5 127Q225.4 126.8 225 126.7L225 126.7L224.3 126.6Q223.9 126.5 223.7 126.3Q223.5 126.1 223.5 125.7L223.5 125.7Q223.5 125.3 223.8 125.1Q224 124.8 224.6 124.6L224.6 124.6L228.7 123.1Q229.6 122.7 230.2 122.6Q230.7 122.4 231.2 122.4L231.2 122.4Q231.9 122.4 232.3 122.9Q232.7 123.3 232.7 123.9M263 137.8L263 137.8Q263 135.2 265.3 133.6Q267.7 132 271.9 132L271.9 132Q273.1 132 274.1 132.2L274.1 132.2Q274.3 132.3 274.5 132.3L274.5 132.3L274.5 126.4Q274.5 125.4 274 124.7Q273.4 124.1 272.4 124.1L272.4 124.1Q271.6 124.1 271.1 124.5Q270.5 124.9 270.5 125.5L270.5 125.5L270.5 127.4Q270.5 128.9 269.6 129.7Q268.6 130.4 266.8 130.4L266.8 130.4Q265.3 130.4 264.5 129.8Q263.7 129.1 263.7 127.9L263.7 127.9Q263.7 126.6 264.9 125.3Q266 124.1 268.2 123.2Q270.4 122.4 273.7 122.4L273.7 122.4Q277.6 122.4 279.6 123.9Q281.5 125.4 281.5 128.1L281.5 128.1L281.5 138Q281.5 138.5 281.7 138.8Q281.9 139 282.3 139Q282.7 139 282.9 138.8Q283.1 138.6 283.3 138.4L283.3 138.4Q283.4 138.3 283.6 138.2Q283.7 138.1 283.9 138.1L283.9 138.1Q284.2 138.1 284.3 138.3Q284.4 138.5 284.4 138.9L284.4 138.9Q284.4 139.7 283.9 140.5Q283.3 141.3 282.2 141.9Q281.1 142.5 279.5 142.5L279.5 142.5Q277.5 142.5 276.3 141.6L276.3 141.6Q275.4 141 275.2 140.2L275.2 140.2Q274.2 141.1 272.9 141.7L272.9 141.7Q271.1 142.5 269 142.5L269 142.5Q266.3 142.5 264.6 141.2Q263 139.9 263 137.8M274.5 138.8L274.5 134Q274.3 133.9 274.1 133.8L274.1 133.8Q273.5 133.7 272.9 133.7L272.9 133.7Q271.6 133.7 270.8 134.5Q270.1 135.2 270.1 136.6L270.1 136.6Q270.1 138 270.8 138.7Q271.4 139.4 272.5 139.4L272.5 139.4Q273.3 139.4 274.1 139.1L274.1 139.1Q274.3 138.9 274.5 138.8L274.5 138.8M305 128.2L305 128.2Q305 129.5 304.1 130.5Q303.1 131.4 301.5 131.4L301.5 131.4Q299.9 131.4 299.1 130.5Q298.3 129.7 298.3 128.3L298.3 128.3L298.3 127.7Q298.3 126.3 297.6 125.6Q296.9 124.8 295.8 124.8L295.8 124.8Q294.8 124.8 294 125.4Q293.2 126 292.7 127.3Q292.2 128.5 292.2 130.3L292.2 130.3Q292.2 132.8 293 134.4Q293.9 136.1 295.3 136.9Q296.7 137.7 298.6 137.7L298.6 137.7Q300.1 137.7 301.2 137.2Q302.4 136.7 303.2 135.6L303.2 135.6Q303.7 135.2 304 135Q304.2 134.9 304.5 134.9L304.5 134.9Q304.8 134.9 305 135.2Q305.1 135.5 305.1 136L305.1 136Q305.1 137.8 303.9 139.3Q302.8 140.7 300.8 141.6Q298.8 142.5 296.2 142.5L296.2 142.5Q293.3 142.5 291 141.3Q288.6 140.1 287.3 138Q285.9 135.8 285.9 132.9L285.9 132.9Q285.9 129.9 287.3 127.5Q288.6 125.1 291 123.8Q293.4 122.4 296.6 122.4L296.6 122.4Q299.2 122.4 301.1 123.2Q303 124 304 125.3Q305 126.6 305 128.2M309.2 136.3L309.2 136.3L309.2 127.8Q309.2 127.3 309.1 127Q308.9 126.8 308.6 126.7L308.6 126.7L307.8 126.6Q307.4 126.5 307.3 126.3Q307.1 126.1 307.1 125.7L307.1 125.7Q307.1 125.3 307.3 125.1Q307.5 124.8 308.2 124.6L308.2 124.6L312.3 123.1Q313.2 122.7 313.7 122.6Q314.3 122.4 314.7 122.4L314.7 122.4Q315.5 122.4 315.9 122.9Q316.3 123.3 316.3 123.9L316.3 123.9L316.3 135.3Q316.3 136.8 317 137.6Q317.7 138.3 318.9 138.3L318.9 138.3Q319.7 138.3 320.6 138L320.6 138Q321.3 137.7 322 137.2L322 137.2L322 127.8Q322 127.3 321.8 127Q321.7 126.8 321.3 126.7L321.3 126.7L320.6 126.6Q320.2 126.5 320 126.3Q319.8 126.1 319.8 125.7L319.8 125.7Q319.8 125.3 320.1 125.1Q320.3 124.8 320.9 124.6L320.9 124.6L325 123.1Q325.9 122.7 326.4 122.6Q327 122.4 327.5 122.4L327.5 122.4Q328.2 122.4 328.6 122.9Q329 123.3 329 123.9L329 123.9L329 138.3Q329 139 329.2 139.4Q329.3 139.7 329.6 139.8L329.6 139.8L330.2 140Q330.7 140.1 330.9 140.4Q331 140.7 331 141L331 141Q331 141.5 330.7 141.7Q330.4 142 329.7 142L329.7 142L325.3 142Q324 142 323.1 141L323.1 141Q322.4 140.2 322.2 139L322.2 139Q320.3 140.7 318.7 141.5L318.7 141.5Q316.7 142.5 315 142.5L315 142.5Q312.4 142.5 310.8 140.8Q309.2 139.1 309.2 136.3M342.7 123.9L342.7 123.9L342.7 126Q344.7 124.2 346.3 123.4L346.3 123.4Q348.2 122.4 349.8 122.4L349.8 122.4Q352.3 122.4 353.7 124.1Q355.2 125.8 355.4 128.6L355.4 128.6L356.4 138.3Q356.5 139 356.6 139.3Q356.8 139.7 357.1 139.8L357.1 139.8L357.7 140Q358.1 140.2 358.3 140.4Q358.5 140.7 358.5 141L358.5 141Q358.5 141.5 358.2 141.7Q357.8 142 357.2 142L357.2 142L348.8 142Q347.5 142 347.5 140.9L347.5 140.9Q347.5 140.3 348.1 140L348.1 140L348.7 139.8Q349 139.6 349.2 139.3Q349.4 139 349.3 138.3L349.3 138.3L348.4 129.6Q348.3 128.1 347.7 127.3Q347.1 126.6 345.9 126.6L345.9 126.6Q345.2 126.6 344.4 126.9Q343.6 127.3 342.8 127.9L342.8 127.9L342.7 128L342.7 138.3Q342.7 139 342.9 139.3Q343 139.6 343.3 139.8L343.3 139.8L343.9 140Q344.6 140.3 344.6 140.9L344.6 140.9Q344.6 142 343.3 142L343.3 142L334.9 142Q334.3 142 334 141.7Q333.7 141.5 333.7 141L333.7 141Q333.7 140.7 333.9 140.4Q334 140.2 334.4 140L334.4 140L335.1 139.8Q335.4 139.7 335.5 139.4Q335.7 139 335.7 138.3L335.7 138.3L335.7 127.8Q335.7 127.3 335.5 127Q335.4 126.8 335 126.7L335 126.7L334.3 126.6Q333.9 126.5 333.7 126.3Q333.5 126.1 333.5 125.7L333.5 125.7Q333.5 125.3 333.8 125.1Q334 124.8 334.6 124.6L334.6 124.6L338.7 123.1Q339.6 122.7 340.2 122.6Q340.7 122.4 341.2 122.4L341.2 122.4Q341.9 122.4 342.3 122.9Q342.7 123.3 342.7 123.9M370.5 114L384.9 114Q385.8 114 386.4 113.8Q386.9 113.7 387.4 113.5Q387.8 113.3 388.3 113.3L388.3 113.3Q389.1 113.3 389.5 113.7Q389.9 114.1 390.1 115L390.1 115L391.8 121Q392 121.6 391.7 121.9Q391.4 122.3 390.8 122.4L390.8 122.4Q390.4 122.5 389.9 122.3Q389.5 122.1 389.2 121.5L389.2 121.5Q388.2 119.4 387.2 118.3Q386.3 117.2 385.3 116.8Q384.3 116.4 383 116.4L383 116.4L379.7 116.4L379.7 127.4L382.7 127.4Q384 127.4 384.5 126.9Q385.1 126.4 385.5 125L385.5 125Q385.6 124.4 385.9 124.2Q386.2 124 386.6 124L386.6 124Q387.6 124 387.8 124.9L387.8 124.9L389.4 131.1Q389.5 131.7 389.3 132.1Q389.1 132.4 388.7 132.6L388.7 132.6Q388.2 132.7 387.8 132.6Q387.4 132.4 387 131.9L387 131.9Q386.5 131.1 386 130.6Q385.5 130.2 384.9 130Q384.3 129.8 383.3 129.8L383.3 129.8L379.7 129.8L379.7 138.2Q379.7 138.6 379.9 139Q380.2 139.3 380.7 139.4L380.7 139.4L382.2 139.6Q382.8 139.7 383 140Q383.3 140.3 383.3 140.9L383.3 140.9Q383.3 141.4 382.9 141.7Q382.6 142 381.8 142L381.8 142L370.5 142Q369.8 142 369.4 141.7Q369.1 141.4 369.1 140.9L369.1 140.9Q369.1 140 370 139.6L370 139.6L371 139.4Q371.5 139.2 371.7 138.9Q372 138.6 372 138.2L372 138.2L372 117.8Q372 117.4 371.7 117.1Q371.5 116.8 371 116.6L371 116.6L370 116.4Q369.1 116 369.1 115.1L369.1 115.1Q369.1 114.6 369.4 114.3Q369.8 114 370.5 114L370.5 114M402.8 123.6L402.8 123.6L402.8 138.3Q402.8 139 402.9 139.3Q403.1 139.6 403.4 139.8L403.4 139.8L404 140Q404.3 140.1 404.5 140.4Q404.7 140.7 404.7 141L404.7 141Q404.7 141.5 404.4 141.7Q404.1 142 403.5 142L403.5 142L395.1 142Q394.5 142 394.2 141.7Q393.8 141.5 393.8 141L393.8 141Q393.8 140.7 394 140.4Q394.2 140.2 394.6 140L394.6 140L395.2 139.8Q395.5 139.6 395.7 139.3Q395.8 139 395.8 138.3L395.8 138.3L395.8 127.7Q395.8 127.2 395.7 126.9Q395.5 126.7 395.1 126.6L395.1 126.6L394.4 126.5Q394 126.4 393.9 126.2Q393.7 126 393.7 125.6L393.7 125.6Q393.7 125.3 393.9 125Q394.2 124.8 394.7 124.6L394.7 124.6L399.5 122.9Q400.3 122.7 400.7 122.6Q401.1 122.5 401.6 122.5L401.6 122.5Q402.1 122.5 402.5 122.8Q402.8 123.1 402.8 123.6M415.7 123.9L415.7 123.9L416 126.9Q416.1 126.6 416.2 126.3L416.2 126.3Q417 124.3 418.3 123.4Q419.7 122.4 421.2 122.4L421.2 122.4Q423.2 122.4 424.3 123.6Q425.4 124.7 425.4 127L425.4 127Q425.4 129.2 424.5 130.3Q423.6 131.3 422.2 131.3L422.2 131.3Q420.7 131.3 420 130.6Q419.3 129.8 419.3 128.5L419.3 128.5L419.3 127.7Q419.2 127.1 419 126.8Q418.8 126.5 418.2 126.5L418.2 126.5Q417.7 126.5 417.2 127Q416.7 127.5 416.4 128.5Q416.1 129.4 416.1 131L416.1 131L416.1 138.3Q416.1 139 416.3 139.2Q416.5 139.5 417.2 139.6L417.2 139.6L418.8 139.9Q419.4 140 419.6 140.3Q419.9 140.5 419.9 141L419.9 141Q419.9 141.5 419.5 141.7Q419.2 142 418.5 142L418.5 142L408.3 142Q407.7 142 407.4 141.7Q407.1 141.5 407.1 141L407.1 141Q407.1 140.7 407.3 140.4Q407.4 140.1 407.9 140L407.9 140L408.5 139.8Q408.8 139.7 408.9 139.4Q409.1 139 409.1 138.3L409.1 138.3L409.1 127.9Q409.1 127.3 408.9 127.1Q408.8 126.8 408.4 126.8L408.4 126.8L407.7 126.7Q407.3 126.5 407.1 126.3Q406.9 126.1 406.9 125.8L406.9 125.8Q406.9 125.4 407.2 125.1Q407.4 124.9 408 124.7L408 124.7L412 123.2Q413.2 122.7 413.8 122.6Q414.3 122.4 414.6 122.4L414.6 122.4Q415.1 122.4 415.3 122.8Q415.6 123.1 415.7 123.9M436.3 123.6L436.3 123.6L436.3 138.3Q436.3 139 436.4 139.3Q436.6 139.6 436.9 139.8L436.9 139.8L437.5 140Q437.8 140.1 438 140.4Q438.2 140.7 438.2 141L438.2 141Q438.2 141.5 437.9 141.7Q437.6 142 437 142L437 142L428.6 142Q428 142 427.7 141.7Q427.3 141.5 427.3 141L427.3 141Q427.3 140.7 427.5 140.4Q427.7 140.2 428.1 140L428.1 140L428.7 139.8Q429 139.6 429.2 139.3Q429.3 139 429.3 138.3L429.3 138.3L429.3 127.7Q429.3 127.2 429.2 126.9Q429 126.7 428.6 126.6L428.6 126.6L427.9 126.5Q427.5 126.4 427.4 126.2Q427.2 126 427.2 125.6L427.2 125.6Q427.2 125.3 427.4 125Q427.7 124.8 428.2 124.6L428.2 124.6L433 122.9Q433.8 122.7 434.2 122.6Q434.6 122.5 435.1 122.5L435.1 122.5Q435.6 122.5 436 122.8Q436.3 123.1 436.3 123.6M449.6 123.9L449.6 123.9L449.6 126Q451.6 124.2 453.2 123.4L453.2 123.4Q455.1 122.4 456.7 122.4L456.7 122.4Q459.2 122.4 460.6 124.1Q462.1 125.8 462.3 128.6L462.3 128.6L463.3 138.3Q463.4 139 463.5 139.3Q463.7 139.7 464 139.8L464 139.8L464.6 140Q465 140.2 465.2 140.4Q465.4 140.7 465.4 141L465.4 141Q465.4 141.5 465.1 141.7Q464.7 142 464.1 142L464.1 142L455.7 142Q454.4 142 454.4 140.9L454.4 140.9Q454.4 140.3 455 140L455 140L455.6 139.8Q455.9 139.6 456.1 139.3Q456.3 139 456.2 138.3L456.2 138.3L455.3 129.6Q455.2 128.1 454.6 127.3Q454 126.6 452.8 126.6L452.8 126.6Q452.1 126.6 451.3 126.9Q450.5 127.3 449.7 127.9L449.7 127.9L449.6 128L449.6 138.3Q449.6 139 449.8 139.3Q449.9 139.6 450.2 139.8L450.2 139.8L450.8 140Q451.5 140.3 451.5 140.9L451.5 140.9Q451.5 142 450.2 142L450.2 142L441.8 142Q441.2 142 440.9 141.7Q440.6 141.5 440.6 141L440.6 141Q440.6 140.7 440.8 140.4Q440.9 140.2 441.3 140L441.3 140L442 139.8Q442.3 139.7 442.4 139.4Q442.6 139 442.6 138.3L442.6 138.3L442.6 127.8Q442.6 127.3 442.4 127Q442.3 126.8 441.9 126.7L441.9 126.7L441.2 126.6Q440.8 126.5 440.6 126.3Q440.4 126.1 440.4 125.7L440.4 125.7Q440.4 125.3 440.7 125.1Q440.9 124.8 441.5 124.6L441.5 124.6L445.6 123.1Q446.5 122.7 447.1 122.6Q447.6 122.4 448.1 122.4L448.1 122.4Q448.8 122.4 449.2 122.9Q449.6 123.3 449.6 123.9M476 123.6L476 123.6L476 138.3Q476 139 476.1 139.3Q476.3 139.6 476.6 139.8L476.6 139.8L477.2 140Q477.6 140.1 477.8 140.4Q477.9 140.7 477.9 141L477.9 141Q477.9 141.5 477.6 141.7Q477.3 142 476.7 142L476.7 142L468.3 142Q467.7 142 467.4 141.7Q467 141.5 467 141L467 141Q467 140.7 467.2 140.4Q467.4 140.2 467.8 140L467.8 140L468.4 139.8Q468.7 139.6 468.9 139.3Q469 139 469 138.3L469 138.3L469 127.7Q469 127.2 468.9 126.9Q468.7 126.7 468.4 126.6L468.4 126.6L467.6 126.5Q467.3 126.4 467.1 126.2Q466.9 126 466.9 125.6L466.9 125.6Q466.9 125.3 467.1 125Q467.4 124.8 468 124.6L468 124.6L472.7 122.9Q473.5 122.7 473.9 122.6Q474.4 122.5 474.9 122.5L474.9 122.5Q475.4 122.5 475.7 122.8Q476 123.1 476 123.6"/></svg>
